<svg xmlns="http://www.w3.org/2000/svg" xmlns:xlink="http://www.w3.org/1999/xlink" version="1.1" x="0px" y="0px" viewBox="0 0 100 125" enable-background="new 0 0 100 100" xml:space="preserve"><path d="M79.237,17.695H20.763c-2.761,0-5,2.238-5,5v30.508c0,2.762,2.239,5,5,5h43.324l12.116,24.102V58.203h3.034  c2.762,0,5-2.238,5-5V22.695C84.237,19.934,81.999,17.695,79.237,17.695z M79.376,49.506c0,2.092-1.921,3.787-4.291,3.787h-50.17  c-2.369,0-4.291-1.695-4.291-3.787V26.394c0-2.091,1.921-3.788,4.291-3.788h50.17c2.37,0,4.291,1.697,4.291,3.788V49.506z"/></svg>